<?xml version="1.0" encoding="UTF-8" standalone="no"?>
<!DOCTYPE svg PUBLIC "-//W3C//DTD SVG 1.1//EN" "http://www.w3.org/Graphics/SVG/1.1/DTD/svg11.dtd">
<svg xmlns="http://www.w3.org/2000/svg" version="1.1" viewBox="0.00 0.00 660.00 273.00">
<path fill="#000000" d="
  M 118.82 0.00
  L 152.31 0.00
  C 179.72 1.72 206.98 14.57 227.40 32.92
  Q 254.83 57.56 266.86 93.12
  C 267.05 93.69 266.90 94.32 267.05 94.73
  C 275.47 118.76 274.98 147.37 268.52 171.65
  C 267.58 175.20 266.03 179.17 264.80 182.92
  C 263.13 188.04 260.47 192.91 258.51 198.09
  A 0.20 0.19 -83.7 0 1 258.37 198.21
  Q 258.20 198.25 258.15 198.35
  C 233.86 243.61 194.21 267.15 143.44 273.00
  L 130.20 273.00
  Q 125.82 272.62 121.56 271.96
  C 102.72 269.06 83.91 263.74 67.69 254.09
  Q 18.11 224.57 3.25 168.24
  Q 1.53 161.69 0.00 147.93
  L 0.00 122.17
  C 5.46 69.39 39.31 26.03 88.24 6.99
  Q 102.64 1.38 118.82 0.00
  Z
  M 265.94 135.39
  A 129.54 129.54 0.0 0 0 136.40 5.85
  A 129.54 129.54 0.0 0 0 6.86 135.39
  A 129.54 129.54 0.0 0 0 136.40 264.93
  A 129.54 129.54 0.0 0 0 265.94 135.39
  Z"
/>
<path fill="#000000" d="
  M 252.36 135.39
  A 115.97 115.97 0.0 0 1 136.39 251.36
  A 115.97 115.97 0.0 0 1 20.42 135.39
  A 115.97 115.97 0.0 0 1 136.39 19.42
  A 115.97 115.97 0.0 0 1 252.36 135.39
  Z
  M 244.93 135.40
  A 108.52 108.52 0.0 0 0 136.41 26.88
  A 108.52 108.52 0.0 0 0 27.89 135.40
  A 108.52 108.52 0.0 0 0 136.41 243.92
  A 108.52 108.52 0.0 0 0 244.93 135.40
  Z"
/>
<path fill="#000000" d="
  M 406.68 98.22
  L 401.16 98.09
  Q 400.01 98.06 400.01 96.91
  C 399.99 91.15 401.44 71.64 397.58 67.74
  C 391.34 61.45 383.06 65.70 383.02 74.16
  Q 382.97 85.58 383.01 96.99
  A 1.00 1.00 0.0 0 1 382.01 98.00
  L 375.98 98.00
  A 0.95 0.95 0.0 0 1 375.03 97.05
  Q 374.94 86.20 375.03 75.27
  C 375.10 66.81 377.32 61.06 385.72 58.81
  C 392.79 56.92 402.45 58.81 405.78 65.96
  Q 406.94 68.45 406.98 72.86
  Q 407.09 85.45 406.91 98.00
  A 0.23 0.22 -0.0 0 1 406.68 98.22
  Z"
/>
<path fill="#000000" d="
  M 475.04 88.54
  L 474.94 97.29
  Q 474.93 98.00 474.22 98.00
  L 468.00 98.00
  A 1.00 0.99 0.0 0 1 467.00 97.01
  Q 466.99 86.57 467.00 75.99
  Q 467.00 69.36 468.13 66.65
  C 472.78 55.49 492.32 55.04 497.47 65.80
  Q 498.84 68.67 498.95 74.85
  Q 499.16 86.16 498.89 97.51
  Q 498.88 98.05 498.34 98.05
  L 491.75 98.00
  Q 491.07 98.00 491.06 97.32
  L 490.93 88.43
  A 0.60 0.60 0.0 0 0 489.87 88.06
  C 489.52 88.48 488.27 88.01 487.74 88.00
  Q 481.62 87.98 475.49 88.08
  A 0.47 0.46 -90.0 0 0 475.04 88.54
  Z
  M 475.84 82.13
  L 490.18 82.08
  A 0.88 0.88 0.0 0 0 491.06 81.20
  L 491.03 72.36
  A 7.77 7.40 -0.2 0 0 483.23 64.99
  L 482.67 64.99
  A 7.77 7.40 -0.2 0 0 474.93 72.42
  L 474.96 81.26
  A 0.88 0.88 0.0 0 0 475.84 82.13
  Z"
/>
<path fill="#000000" d="
  M 306.26 59.17
  Q 308.35 59.07 309.87 59.02
  Q 311.02 58.98 311.01 60.13
  Q 310.95 72.20 311.07 84.24
  C 311.18 94.52 327.97 95.74 327.99 82.65
  Q 328.01 71.52 328.00 60.21
  Q 328.00 59.06 329.14 59.04
  L 335.36 58.91
  Q 335.88 58.90 335.89 59.42
  Q 336.15 71.31 335.96 83.18
  Q 335.94 84.32 335.32 86.34
  C 334.84 87.90 335.13 89.27 334.55 90.70
  C 329.36 103.46 304.12 101.77 304.03 85.78
  Q 303.96 72.63 304.02 59.33
  A 0.67 0.67 0.0 0 1 305.00 58.74
  L 305.46 58.99
  Q 305.84 59.19 306.26 59.17
  Z"
/>
<path fill="#000000" d="
  M 342.04 59.18
  Q 355.26 58.71 368.48 59.22
  C 369.56 59.26 370.05 59.17 371.05 58.75
  A 0.63 0.62 -11.6 0 1 371.92 59.32
  L 371.96 65.42
  A 0.62 0.62 0.0 0 1 371.33 66.04
  L 360.64 65.98
  Q 360.00 65.98 360.00 66.61
  L 360.00 97.15
  Q 360.00 98.04 359.11 98.03
  L 352.74 97.98
  A 0.74 0.74 0.0 0 1 352.00 97.24
  L 352.00 66.98
  A 1.01 1.01 0.0 0 0 350.98 65.97
  L 340.69 66.07
  Q 340.07 66.07 340.06 65.45
  L 340.03 59.63
  A 0.90 0.89 -4.8 0 1 340.79 58.74
  Q 341.07 58.70 341.28 58.90
  A 1.04 1.04 0.0 0 0 342.04 59.18
  Z"
/>
<path fill="#000000" d="
  M 456.97 78.09
  Q 457.14 78.04 457.32 77.98
  Q 457.44 77.94 457.54 78.02
  C 463.69 82.98 461.61 93.20 455.71 96.26
  C 450.00 99.21 437.31 98.04 429.84 97.98
  A 0.84 0.84 0.0 0 1 429.00 97.14
  L 429.00 60.02
  Q 429.00 58.89 430.12 58.92
  C 436.89 59.08 448.67 57.77 454.07 60.23
  Q 461.13 63.44 458.66 73.44
  C 458.37 74.59 454.90 76.40 456.37 77.95
  Q 456.62 78.21 456.97 78.09
  Z
  M 436.88 67.52
  L 437.04 73.96
  A 1.44 1.44 0.0 0 0 438.52 75.37
  L 446.11 75.18
  A 5.98 4.61 -1.4 0 0 451.98 70.43
  L 451.98 70.33
  A 5.98 4.61 -1.4 0 0 445.89 65.86
  L 438.29 66.05
  A 1.44 1.44 0.0 0 0 436.88 67.52
  Z
  M 436.99 81.74
  L 437.03 91.04
  A 0.81 0.81 0.0 0 0 437.84 91.85
  L 447.49 91.81
  A 5.54 4.64 -0.2 0 0 453.01 87.15
  L 453.01 85.51
  A 5.54 4.64 -0.2 0 0 447.45 80.89
  L 437.80 80.93
  A 0.81 0.81 0.0 0 0 436.99 81.74
  Z"
/>
<path fill="#000000" d="
  M 146.85 103.26
  Q 168.41 94.45 170.15 70.86
  A 0.92 0.92 0.0 0 1 171.07 70.00
  L 192.23 70.00
  A 0.56 0.55 -4.2 0 1 192.78 70.47
  Q 193.34 73.99 193.10 75.78
  Q 188.20 111.96 154.68 125.31
  A 0.37 0.37 0.0 0 0 154.82 126.03
  L 192.35 125.97
  A 0.63 0.63 0.0 0 1 192.98 126.60
  L 192.98 146.39
  Q 192.98 147.01 192.36 147.01
  L 155.70 147.00
  A 0.29 0.29 0.0 0 0 155.59 147.56
  Q 180.09 157.23 189.46 181.88
  C 191.36 186.88 193.42 194.54 192.98 201.19
  A 0.86 0.86 0.0 0 1 192.12 202.00
  L 171.01 202.00
  A 1.00 1.00 0.0 0 1 170.01 201.06
  Q 168.71 180.68 150.93 171.34
  Q 150.60 171.16 150.06 171.30
  Q 149.47 171.45 149.25 170.88
  Q 148.90 169.94 148.02 170.21
  A 0.62 0.61 74.1 0 1 147.24 169.77
  Q 147.10 169.19 146.67 168.84
  Q 146.00 168.31 146.00 169.16
  Q 146.00 185.09 146.00 201.01
  A 1.00 1.00 0.0 0 1 145.00 202.01
  L 126.02 201.98
  A 1.02 1.02 0.0 0 1 125.00 200.96
  L 125.00 170.00
  Q 125.00 169.41 124.45 169.60
  C 108.63 175.19 103.68 186.08 100.82 201.43
  Q 100.71 202.04 100.09 202.03
  L 79.96 201.98
  A 0.95 0.94 -0.0 0 1 79.01 201.04
  C 78.99 196.55 78.65 192.01 79.78 187.72
  Q 87.34 158.98 115.30 147.70
  A 0.36 0.36 0.0 0 0 115.17 147.00
  L 78.97 147.00
  A 0.97 0.97 0.0 0 1 78.00 146.03
  L 78.02 126.60
  Q 78.02 125.98 78.64 125.98
  L 115.94 126.01
  A 0.37 0.37 0.0 0 0 116.07 125.30
  C 93.89 116.59 77.13 95.83 79.02 71.17
  Q 79.10 70.08 80.20 70.07
  L 99.39 69.84
  A 1.56 1.56 0.0 0 1 100.97 71.27
  Q 102.93 93.82 123.44 102.99
  A 1.11 1.11 0.0 0 0 125.00 101.98
  L 125.00 71.28
  Q 125.00 70.00 126.28 70.00
  L 144.77 69.99
  Q 145.99 69.99 145.99 71.21
  L 146.02 102.70
  Q 146.02 103.59 146.85 103.26
  Z"
/>
<path fill="#000000" d="
  M 416.79 89.86
  L 417.49 88.93
  Q 417.92 88.35 418.44 88.86
  L 419.09 89.51
  Q 419.44 89.87 419.91 90.04
  C 425.57 92.11 423.36 100.59 416.51 98.76
  C 412.29 97.63 413.75 89.59 416.01 90.14
  Q 416.50 90.26 416.79 89.86
  Z"
/>
<path fill="#70bc3f" d="
  M 545.78 114.88
  L 549.64 108.19
  Q 549.74 108.01 549.95 108.01
  L 555.25 108.00
  Q 556.11 107.99 555.56 108.66
  C 553.62 111.05 549.62 116.98 546.26 116.04
  Q 545.27 115.77 545.78 114.88
  Z"
/>
<path fill="#70bc3f" d="
  M 353.16 144.58
  C 348.07 129.08 359.65 112.49 377.10 118.21
  Q 385.12 120.84 386.51 129.38
  A 0.54 0.53 -4.6 0 1 385.98 130.00
  L 381.95 130.00
  Q 381.38 130.00 381.16 129.47
  Q 376.99 119.24 366.21 122.47
  C 357.13 125.18 355.92 139.79 359.97 146.51
  C 365.80 156.20 380.16 153.38 382.14 141.88
  A 1.05 1.05 0.0 0 0 381.09 140.65
  L 370.77 140.79
  Q 370.23 140.80 370.22 140.26
  L 370.15 136.69
  Q 370.14 136.02 370.81 136.02
  L 386.45 135.96
  Q 387.00 135.96 387.00 136.51
  L 387.00 155.38
  A 0.63 0.63 0.0 0 1 386.37 156.01
  L 383.81 155.99
  Q 383.29 155.98 383.16 155.47
  L 382.38 152.48
  Q 382.17 151.69 381.61 152.29
  C 372.48 162.21 356.91 155.99 353.16 144.58
  Z"
/>
<rect fill="#70bc3f" x="302.51" y="117.99" width="5.48" height="38.18" rx="0.86"/>
<path fill="#70bc3f" d="
  M 321.83 127.56
  Q 321.00 126.28 321.00 127.81
  L 320.99 155.61
  A 0.53 0.53 0.0 0 1 320.45 156.14
  L 316.68 156.10
  A 0.67 0.66 90.0 0 1 316.02 155.43
  L 315.99 118.79
  A 0.79 0.79 0.0 0 1 316.78 118.00
  L 321.14 118.00
  Q 321.64 118.00 321.91 118.41
  Q 331.29 132.76 340.52 147.19
  Q 341.03 147.99 341.04 147.04
  Q 341.18 134.45 340.94 122.02
  Q 340.91 120.55 341.32 118.56
  Q 341.44 118.00 342.01 118.00
  L 345.40 118.00
  A 1.09 1.09 0.0 0 1 346.49 119.09
  L 346.50 154.98
  A 1.09 1.08 -89.5 0 1 345.40 156.07
  L 340.77 155.97
  A 0.94 0.94 0.0 0 1 340.00 155.54
  L 321.83 127.56
  Z"
/>
<path fill="#70bc3f" d="
  M 400.16 134.06
  L 418.07 133.97
  A 0.68 0.68 0.0 0 1 418.75 134.65
  L 418.75 138.24
  A 0.68 0.68 0.0 0 1 418.06 138.92
  L 400.09 138.79
  A 0.68 0.68 0.0 0 0 399.41 139.46
  L 399.40 150.57
  A 0.68 0.68 0.0 0 0 400.08 151.25
  L 419.60 151.25
  A 0.68 0.68 0.0 0 1 420.28 151.87
  L 420.57 155.33
  A 0.68 0.68 0.0 0 1 419.89 156.07
  L 394.68 156.02
  A 0.68 0.68 0.0 0 1 394.00 155.34
  L 394.00 118.68
  A 0.68 0.68 0.0 0 1 394.68 118.00
  L 419.73 118.00
  A 0.68 0.68 0.0 0 1 420.41 118.67
  L 420.46 122.31
  A 0.68 0.68 0.0 0 1 419.78 123.00
  L 400.12 123.00
  A 0.68 0.68 0.0 0 0 399.44 123.68
  L 399.48 133.38
  A 0.68 0.68 0.0 0 0 400.16 134.06
  Z"
/>
<path fill="#70bc3f" d="
  M 430.67 156.05
  L 426.33 156.09
  A 0.33 0.33 0.0 0 1 426.00 155.76
  L 426.00 118.33
  A 0.33 0.33 0.0 0 1 426.33 118.00
  L 431.56 118.00
  A 0.33 0.33 0.0 0 1 431.84 118.15
  L 450.40 146.78
  A 0.33 0.33 0.0 0 0 451.01 146.60
  L 451.01 118.33
  A 0.33 0.33 0.0 0 1 451.34 118.00
  L 456.17 118.00
  A 0.33 0.33 0.0 0 1 456.50 118.33
  L 456.48 155.67
  A 0.33 0.33 0.0 0 1 456.15 156.00
  L 450.53 156.00
  A 0.33 0.33 0.0 0 1 450.25 155.85
  L 431.61 127.04
  A 0.33 0.33 0.0 0 0 431.00 127.22
  L 431.00 155.72
  A 0.33 0.33 0.0 0 1 430.67 156.05
  Z"
/>
<rect fill="#70bc3f" x="-2.86" y="-19.00" transform="translate(466.89,137.01) rotate(-0.1)" width="5.72" height="38.00" rx="0.86"/>
<path fill="#70bc3f" d="
  M 483.74 151.25
  L 503.59 151.25
  A 0.72 0.72 0.0 0 1 504.30 151.93
  L 504.47 155.27
  A 0.72 0.72 0.0 0 1 503.75 156.03
  L 478.22 155.99
  A 0.72 0.72 0.0 0 1 477.50 155.27
  L 477.50 118.78
  A 0.72 0.72 0.0 0 1 478.22 118.06
  L 503.24 117.97
  A 0.72 0.72 0.0 0 1 503.96 118.68
  L 504.00 122.29
  A 0.72 0.72 0.0 0 1 503.28 123.02
  L 483.72 122.96
  A 0.72 0.72 0.0 0 0 483.00 123.68
  L 483.01 133.32
  A 0.72 0.72 0.0 0 0 483.73 134.04
  L 501.87 133.98
  A 0.72 0.72 0.0 0 1 502.59 134.68
  L 502.71 138.30
  A 0.72 0.72 0.0 0 1 501.99 139.04
  L 483.72 138.92
  A 0.72 0.72 0.0 0 0 482.99 139.64
  L 483.02 150.53
  A 0.72 0.72 0.0 0 0 483.74 151.25
  Z"
/>
<path fill="#70bc3f" d="
  M 534.65 138.02
  C 539.79 141.36 538.55 150.00 540.10 155.57
  Q 540.24 156.07 539.72 156.06
  L 534.72 155.98
  A 0.71 0.70 -1.8 0 1 534.04 155.35
  C 533.45 149.71 534.80 140.21 526.51 140.02
  Q 521.24 139.90 515.97 140.05
  Q 515.50 140.06 515.50 140.53
  L 515.50 155.55
  A 0.54 0.53 -89.0 0 1 514.95 156.09
  L 510.60 155.97
  Q 510.00 155.95 510.00 155.35
  L 510.00 118.50
  A 0.43 0.43 0.0 0 1 510.42 118.07
  Q 518.79 117.82 527.21 118.10
  C 533.26 118.29 538.00 119.79 539.16 126.03
  Q 540.49 133.16 534.63 137.39
  Q 534.19 137.72 534.65 138.02
  Z
  M 515.46 123.58
  L 515.48 134.50
  A 0.79 0.79 0.0 0 0 516.27 135.28
  L 527.65 135.26
  A 6.13 5.74 -0.1 0 0 533.77 129.51
  L 533.77 128.49
  A 6.13 5.74 -0.1 0 0 527.63 122.76
  L 516.25 122.78
  A 0.79 0.79 0.0 0 0 515.46 123.58
  Z"
/>
<rect fill="#70bc3f" x="546.00" y="118.02" width="5.74" height="38.00" rx="1.00"/>
<path fill="#70bc3f" d="
  M 579.96 144.96
  L 565.16 144.90
  A 0.59 0.59 0.0 0 0 564.61 145.29
  L 560.88 155.56
  A 0.59 0.59 0.0 0 1 560.34 155.94
  L 555.76 156.12
  A 0.59 0.59 0.0 0 1 555.19 155.31
  L 569.54 118.42
  A 0.59 0.59 0.0 0 1 570.09 118.04
  L 575.29 118.03
  A 0.59 0.59 0.0 0 1 575.84 118.41
  L 590.19 155.20
  A 0.59 0.59 0.0 0 1 589.64 156.00
  L 584.71 156.00
  A 0.59 0.59 0.0 0 1 584.15 155.61
  L 580.51 145.35
  A 0.59 0.59 0.0 0 0 579.96 144.96
  Z
  M 566.82 139.58
  A 0.33 0.33 0.0 0 0 567.13 140.02
  L 578.03 140.02
  A 0.33 0.33 0.0 0 0 578.34 139.58
  L 572.89 124.42
  A 0.33 0.33 0.0 0 0 572.27 124.42
  L 566.82 139.58
  Z"
/>
<path fill="#70bc3f" d="
  M 517.19 163.15
  Q 517.33 162.91 517.61 162.91
  L 522.35 162.97
  A 0.67 0.67 0.0 0 1 522.85 164.07
  C 521.12 166.08 516.14 172.88 513.46 170.69
  Q 513.01 170.33 513.30 169.83
  L 517.19 163.15
  Z"
/>
<path fill="#70bc3f" d="
  M 412.59 212.07
  C 383.66 212.52 390.36 163.13 418.87 173.40
  Q 426.44 176.13 427.70 184.41
  Q 427.79 185.00 427.19 185.00
  L 423.06 185.00
  A 0.76 0.75 -9.9 0 1 422.35 184.51
  C 419.48 176.89 411.63 174.50 405.00 179.01
  C 399.99 182.42 399.07 190.49 400.07 196.46
  C 402.36 210.18 419.97 211.87 422.76 196.94
  A 0.54 0.54 0.0 0 1 423.29 196.50
  L 427.22 196.50
  A 0.96 0.96 0.0 0 1 428.16 197.64
  Q 425.40 211.86 412.59 212.07
  Z"
/>
<path fill="#70bc3f" d="
  M 590.91 184.95
  C 595.21 168.68 621.29 167.14 623.50 184.40
  Q 623.58 185.00 622.97 185.00
  L 618.80 185.00
  Q 618.27 185.00 618.11 184.50
  Q 615.51 176.46 607.49 176.78
  C 591.33 177.43 591.40 206.81 607.17 207.26
  Q 616.92 207.53 618.51 196.99
  Q 618.58 196.50 619.08 196.50
  L 623.23 196.50
  A 0.52 0.52 0.0 0 1 623.75 197.05
  Q 622.93 209.40 611.52 211.73
  C 594.32 215.24 587.17 199.13 590.91 184.95
  Z"
/>
<path fill="#70bc3f" d="
  M 516.3205 212.3399
  A 20.21 18.45 89.8 0 1 497.8001 192.1944
  A 20.21 18.45 89.8 0 1 516.1795 171.9201
  A 20.21 18.45 89.8 0 1 534.6999 192.0656
  A 20.21 18.45 89.8 0 1 516.3205 212.3399
  Z
  M 516.2900 207.5200
  A 15.40 12.81 90.0 0 0 529.1000 192.1200
  A 15.40 12.81 90.0 0 0 516.2900 176.7200
  A 15.40 12.81 90.0 0 0 503.4800 192.1200
  A 15.40 12.81 90.0 0 0 516.2900 207.5200
  Z"
/>
<path fill="#70bc3f" d="
  M 308.54 189.28
  L 326.85 189.24
  A 0.54 0.54 0.0 0 1 327.39 189.79
  L 327.31 193.51
  A 0.54 0.54 0.0 0 1 326.77 194.04
  L 308.53 193.93
  A 0.54 0.54 0.0 0 0 307.99 194.47
  L 308.02 205.73
  A 0.54 0.54 0.0 0 0 308.56 206.27
  L 328.21 206.24
  A 0.54 0.54 0.0 0 1 328.75 206.78
  L 328.75 210.49
  A 0.54 0.54 0.0 0 1 328.21 211.03
  L 302.78 210.99
  A 0.54 0.54 0.0 0 1 302.24 210.45
  L 302.26 173.54
  A 0.54 0.54 0.0 0 1 302.80 173.00
  L 328.21 173.00
  A 0.54 0.54 0.0 0 1 328.75 173.54
  L 328.75 177.48
  A 0.54 0.54 0.0 0 1 328.21 178.02
  L 308.54 177.96
  A 0.54 0.54 0.0 0 0 308.00 178.50
  L 308.00 188.74
  A 0.54 0.54 0.0 0 0 308.54 189.28
  Z"
/>
<path fill="#70bc3f" d="
  M 359.75 206.84
  L 359.75 210.41
  A 0.59 0.59 0.0 0 1 359.16 211.00
  L 334.84 211.00
  A 0.59 0.59 0.0 0 1 334.25 210.41
  L 334.25 173.59
  A 0.59 0.59 0.0 0 1 334.84 173.00
  L 339.41 173.00
  A 0.59 0.59 0.0 0 1 340.00 173.59
  L 340.00 205.66
  A 0.59 0.59 0.0 0 0 340.59 206.25
  L 359.16 206.25
  A 0.59 0.59 0.0 0 1 359.75 206.84
  Z"
/>
<path fill="#70bc3f" d="
  M 369.61 206.31
  L 389.72 206.22
  A 0.60 0.60 0.0 0 1 390.32 206.80
  L 390.43 210.38
  A 0.60 0.60 0.0 0 1 389.83 211.00
  L 364.09 211.00
  A 0.60 0.60 0.0 0 1 363.49 210.40
  L 363.52 173.60
  A 0.60 0.60 0.0 0 1 364.12 173.00
  L 389.45 173.00
  A 0.60 0.60 0.0 0 1 390.05 173.63
  L 389.83 177.47
  A 0.60 0.60 0.0 0 1 389.23 178.04
  L 369.59 177.92
  A 0.60 0.60 0.0 0 0 368.98 178.53
  L 369.04 188.71
  A 0.60 0.60 0.0 0 0 369.64 189.31
  L 388.15 189.22
  A 0.60 0.60 0.0 0 1 388.75 189.82
  L 388.75 193.44
  A 0.60 0.60 0.0 0 1 388.15 194.04
  L 369.61 193.91
  A 0.60 0.60 0.0 0 0 369.01 194.51
  L 369.01 205.71
  A 0.60 0.60 0.0 0 0 369.61 206.31
  Z"
/>
<path fill="#70bc3f" d="
  M 441.61 177.86
  L 430.65 178.06
  Q 429.97 178.07 429.98 177.39
  L 430.04 173.56
  Q 430.05 173.00 430.62 173.00
  L 459.70 173.00
  Q 460.39 173.00 460.39 173.70
  L 460.39 177.36
  Q 460.39 178.10 459.65 178.09
  L 448.50 177.87
  Q 448.05 177.86 448.04 178.32
  C 447.95 188.81 448.86 200.30 447.67 210.61
  Q 447.61 211.15 447.06 211.13
  L 442.84 210.95
  Q 442.25 210.93 442.25 210.34
  L 442.24 178.48
  A 0.62 0.62 0.0 0 0 441.61 177.86
  Z"
/>
<path fill="#70bc3f" d="
  M 469.75 195.51
  L 469.75 210.37
  A 0.63 0.63 0.0 0 1 469.12 211.00
  L 464.76 211.00
  Q 464.04 211.00 464.03 210.28
  Q 463.89 192.26 464.11 174.24
  Q 464.13 173.05 465.32 173.03
  Q 473.11 172.92 481.74 173.05
  C 493.40 173.23 498.43 185.06 489.02 192.44
  Q 488.55 192.80 489.04 193.14
  Q 492.51 195.52 492.73 199.00
  Q 493.21 206.50 494.34 210.78
  Q 494.45 211.20 494.01 211.18
  L 489.04 210.92
  A 0.91 0.90 -89.0 0 1 488.18 210.02
  C 488.15 206.24 488.14 198.44 484.73 196.10
  C 481.84 194.14 473.89 194.99 470.25 195.01
  Q 469.75 195.01 469.75 195.51
  Z
  M 469.74 178.36
  L 469.76 189.86
  A 0.45 0.45 0.0 0 0 470.21 190.31
  L 481.79 190.28
  A 6.25 5.69 -0.1 0 0 488.03 184.58
  L 488.03 183.56
  A 6.25 5.69 -0.1 0 0 481.77 177.88
  L 470.19 177.91
  A 0.45 0.45 0.0 0 0 469.74 178.36
  Z"
/>
<path fill="#70bc3f" d="
  M 545.17 211.00
  L 540.31 211.00
  A 0.31 0.31 0.0 0 1 540.00 210.69
  L 540.07 173.30
  A 0.31 0.31 0.0 0 1 540.38 172.99
  L 545.64 173.01
  A 0.31 0.31 0.0 0 1 545.90 173.15
  L 564.70 202.20
  A 0.31 0.31 0.0 0 0 565.27 202.03
  L 565.24 173.35
  A 0.31 0.31 0.0 0 1 565.55 173.04
  L 570.44 172.99
  A 0.31 0.31 0.0 0 1 570.75 173.30
  L 570.75 210.69
  A 0.31 0.31 0.0 0 1 570.44 211.00
  L 564.59 211.00
  A 0.31 0.31 0.0 0 1 564.33 210.86
  L 546.08 182.68
  A 0.31 0.31 0.0 0 0 545.51 182.85
  L 545.48 210.69
  A 0.31 0.31 0.0 0 1 545.17 211.00
  Z"
/>
<rect fill="#70bc3f" x="-2.86" y="-19.03" transform="translate(581.12,192.04) rotate(0.1)" width="5.72" height="38.06" rx="0.74"/>
<path fill="#70bc3f" d="
  M 660.00 209.29
  L 660.00 210.83
  L 655.24 210.92
  A 0.95 0.94 -10.5 0 1 654.34 210.31
  L 650.66 200.41
  A 0.71 0.71 0.0 0 0 649.99 199.94
  L 635.59 199.94
  Q 635.11 199.94 634.93 200.39
  L 631.00 210.77
  A 0.49 0.49 0.0 0 1 630.54 211.09
  L 625.91 211.07
  A 0.52 0.52 0.0 0 1 625.43 210.36
  L 639.77 173.52
  A 0.82 0.81 10.5 0 1 640.53 173.00
  L 645.44 173.00
  A 0.64 0.63 79.1 0 1 646.03 173.41
  L 660.00 209.29
  Z
  M 637.11 194.56
  A 0.34 0.34 0.0 0 0 637.43 195.01
  L 648.27 195.05
  A 0.34 0.34 0.0 0 0 648.59 194.60
  L 643.23 179.39
  A 0.34 0.34 0.0 0 0 642.59 179.39
  L 637.11 194.56
  Z"
/>
</svg>
